<svg width="17" height="12" viewBox="0 0 17 12" fill="none" xmlns="http://www.w3.org/2000/svg">
<path fill-rule="evenodd" clip-rule="evenodd" d="M16.4339 6.00066L16.9405 5.72754V5.72492L16.9368 5.72098L16.9295 5.70522L16.9038 5.6527L16.8062 5.46362C16.687 5.24251 16.5604 5.02615 16.4265 4.81497C15.9799 4.10979 15.4665 3.45634 14.8946 2.86508C13.5201 1.44699 11.4046 0 8.49939 0C5.59659 0 3.47991 1.44567 2.10542 2.86508C1.53348 3.45634 1.02008 4.10979 0.573453 4.81497C0.392227 5.10259 0.22438 5.39971 0.0705293 5.70522L0.0632051 5.72098L0.0607638 5.72492V5.72623C0.0607638 5.72623 0.0595431 5.72754 0.566129 6.00066L0.059543 5.72623C0.0203764 5.81134 0 5.90503 0 6C0 6.09497 0.0203764 6.18866 0.059543 6.27377L0.0583224 6.2764L0.0619845 6.28034L0.0693085 6.29609C0.107372 6.37813 0.148086 6.45871 0.191378 6.5377C0.717005 7.49282 1.36 8.36732 2.10298 9.13754C3.47869 10.5556 5.59415 12 8.49939 12C11.4034 12 13.5201 10.5556 14.8958 9.13623C15.4667 8.54427 15.9796 7.89089 16.4265 7.18634C16.5977 6.91526 16.757 6.63571 16.9038 6.34862L16.9295 6.29609L16.9368 6.28034L16.9392 6.2764V6.27508C16.9392 6.27508 16.9405 6.27377 16.4339 6.00066ZM16.4339 6.00066L16.9405 6.27508C16.9796 6.18997 17 6.09628 17 6.00131C17 5.90634 16.9796 5.81265 16.9405 5.72754L16.4339 6.00066ZM8.42615 3.98381C7.92887 3.98381 7.45196 4.19629 7.10034 4.57453C6.74871 4.95276 6.55117 5.46575 6.55117 6.00066C6.55117 6.53556 6.74871 7.04855 7.10034 7.42678C7.45196 7.80502 7.92887 8.01751 8.42615 8.01751C8.92342 8.01751 9.40033 7.80502 9.75196 7.42678C10.1036 7.04855 10.3011 6.53556 10.3011 6.00066C10.3011 5.46575 10.1036 4.95276 9.75196 4.57453C9.40033 4.19629 8.92342 3.98381 8.42615 3.98381ZM5.42081 6.00066C5.42081 5.14258 5.7377 4.31966 6.30177 3.71291C6.86584 3.10616 7.63088 2.76529 8.42859 2.76529C9.2263 2.76529 9.99134 3.10616 10.5554 3.71291C11.1195 4.31966 11.4364 5.14258 11.4364 6.00066C11.4364 6.85873 11.1195 7.68166 10.5554 8.28841C9.99134 8.89515 9.2263 9.23602 8.42859 9.23602C7.63088 9.23602 6.86584 8.89515 6.30177 8.28841C5.7377 7.68166 5.42081 6.85873 5.42081 6.00066Z" fill="#09A8D3"/>
</svg>
