<svg width="13" height="12" viewBox="0 0 13 12" fill="none" xmlns="http://www.w3.org/2000/svg">
<path d="M11.05 8.96528H9.40875C9.31185 8.96536 9.21622 8.98866 9.12899 9.03344C9.04176 9.07822 8.9652 9.14332 8.905 9.22389L7.00375 11.7411C6.94286 11.8219 6.86561 11.8871 6.77773 11.9319C6.68986 11.9767 6.5936 12 6.4961 12C6.3986 12 6.30234 11.9767 6.21447 11.9319C6.12659 11.8871 6.04934 11.8219 5.98845 11.7411L4.0872 9.22389C4.02694 9.14323 3.95026 9.07808 3.86292 9.03329C3.77557 8.98851 3.67981 8.96526 3.5828 8.96528H1.95C0.8697 8.96528 0 8.04254 0 6.89637V2.06891C0 0.922734 0.8697 0 1.95 0H11.05C12.1309 0 13 0.922734 13 2.06891V6.89637C13 8.04254 12.1309 8.96528 11.05 8.96528Z" fill="#09A8D3"/>
</svg>
